<svg xmlns="http://www.w3.org/2000/svg" xmlns:xlink="http://www.w3.org/1999/xlink" width="56" zoomAndPan="magnify" viewBox="0 0 42 42" height="56" preserveAspectRatio="xMidYMid meet" version="1.0"><defs><clipPath id="65e372ff05"><path d="M 1.925781 0 L 40.015625 0 L 40.015625 41 L 1.925781 41 Z M 1.925781 0 " clip-rule="nonzero"/></clipPath><clipPath id="21779c054a"><path d="M 1.925781 0 L 21 0 L 21 20 L 1.925781 20 Z M 1.925781 0 " clip-rule="nonzero"/></clipPath><clipPath id="076906ca0c"><path d="M 21 21 L 40.015625 21 L 40.015625 41 L 21 41 Z M 21 21 " clip-rule="nonzero"/></clipPath></defs><g clip-path="url(#65e372ff05)"><path fill="#000000" d="M 38.308594 0.992188 L 26.890625 19.625 L 19.410156 30.652344 L 19.078125 31.179688 L 19.097656 31.210938 L 18.734375 31.820312 L 18.6875 31.867188 L 18.410156 32.148438 L 18.410156 32.367188 L 13.832031 40.03125 L 3.636719 40.03125 L 15.058594 21.390625 L 22.507812 10.367188 L 22.835938 9.839844 L 22.816406 9.808594 L 24.023438 7.777344 L 24.074219 7.726562 L 24.367188 7.445312 L 24.367188 7.199219 L 28.0625 0.992188 L 38.308594 0.992188 M 40.019531 0.03125 L 27.519531 0.03125 L 23.410156 6.933594 L 23.410156 7.035156 L 23.265625 7.171875 L 21.699219 9.808594 L 21.714844 9.832031 L 14.253906 20.871094 L 1.925781 40.988281 L 14.371094 40.988281 L 19.363281 32.632812 L 19.363281 32.542969 L 19.496094 32.410156 L 20.214844 31.210938 L 20.199219 31.191406 L 27.691406 20.144531 Z M 40.019531 0.03125 " fill-opacity="1" fill-rule="nonzero"/></g><g clip-path="url(#21779c054a)"><path fill="#000000" d="M 13.832031 0.992188 L 19.066406 9.753906 L 13.789062 17.5625 L 8.980469 9.714844 L 8.972656 9.699219 L 8.960938 9.683594 L 8.929688 9.636719 L 3.632812 0.992188 L 13.832031 0.992188 M 14.371094 0.03125 L 1.925781 0.03125 L 8.125 10.152344 L 8.164062 10.214844 L 13.75 19.332031 L 20.199219 9.789062 Z M 14.371094 0.03125 " fill-opacity="1" fill-rule="nonzero"/></g><g clip-path="url(#076906ca0c)"><path fill="#000000" d="M 28.148438 23.453125 L 38.308594 40.03125 L 28.0625 40.03125 L 22.847656 31.269531 L 28.148438 23.453125 M 28.191406 21.6875 L 21.714844 31.238281 L 27.519531 40.988281 L 40.019531 40.988281 Z M 28.191406 21.6875 " fill-opacity="1" fill-rule="nonzero"/></g></svg>