<svg xmlns="http://www.w3.org/2000/svg" xmlns:xlink="http://www.w3.org/1999/xlink" width="56" zoomAndPan="magnify" viewBox="0 0 42 42" height="56" preserveAspectRatio="xMidYMid meet" version="1.0"><defs><clipPath id="1064606819"><path d="M 1.925781 0 L 40.015625 0 L 40.015625 41 L 1.925781 41 Z M 1.925781 0 " clip-rule="nonzero"/></clipPath><clipPath id="5ca84d4bae"><path d="M 1.925781 0 L 21 0 L 21 20 L 1.925781 20 Z M 1.925781 0 " clip-rule="nonzero"/></clipPath><clipPath id="6a51573fb4"><path d="M 21 21 L 40.015625 21 L 40.015625 41 L 21 41 Z M 21 21 " clip-rule="nonzero"/></clipPath></defs><g clip-path="url(#1064606819)"><path fill="#ffffff" d="M 20.230469 31.191406 L 27.734375 20.144531 L 40.074219 0.03125 L 27.558594 0.03125 L 23.441406 6.933594 L 23.441406 7.035156 L 23.300781 7.171875 L 21.730469 9.808594 L 21.742188 9.828125 L 14.273438 20.871094 L 1.925781 40.988281 L 14.390625 40.988281 L 19.390625 32.632812 L 19.390625 32.542969 L 19.523438 32.410156 L 20.242188 31.210938 Z M 20.230469 31.191406 " fill-opacity="1" fill-rule="nonzero"/></g><g clip-path="url(#5ca84d4bae)"><path fill="#ffffff" d="M 20.230469 9.789062 L 14.390625 0.03125 L 1.925781 0.03125 L 8.132812 10.152344 L 8.175781 10.214844 L 13.769531 19.332031 Z M 20.230469 9.789062 " fill-opacity="1" fill-rule="nonzero"/></g><g clip-path="url(#6a51573fb4)"><path fill="#ffffff" d="M 21.742188 31.238281 L 27.558594 40.988281 L 40.074219 40.988281 L 28.230469 21.6875 Z M 21.742188 31.238281 " fill-opacity="1" fill-rule="nonzero"/></g></svg>