<svg xmlns="http://www.w3.org/2000/svg" xmlns:xlink="http://www.w3.org/1999/xlink" width="56" zoomAndPan="magnify" viewBox="0 0 42 42" height="56" preserveAspectRatio="xMidYMid meet" version="1.0"><defs><clipPath id="f7c28f3e98"><path d="M 0.488281 0 L 41.511719 0 L 41.511719 41.023438 L 0.488281 41.023438 Z M 0.488281 0 " clip-rule="nonzero"/></clipPath></defs><g clip-path="url(#f7c28f3e98)"><path fill="#000000" d="M 41.492188 20.511719 C 41.492188 21.183594 41.460938 21.851562 41.394531 22.519531 C 41.328125 23.191406 41.230469 23.851562 41.097656 24.511719 C 40.96875 25.171875 40.804688 25.820312 40.609375 26.464844 C 40.414062 27.109375 40.191406 27.738281 39.933594 28.359375 C 39.675781 28.980469 39.390625 29.585938 39.074219 30.179688 C 38.757812 30.773438 38.414062 31.347656 38.039062 31.90625 C 37.667969 32.464844 37.265625 33.003906 36.839844 33.523438 C 36.414062 34.042969 35.964844 34.539062 35.492188 35.015625 C 35.015625 35.488281 34.519531 35.941406 34 36.367188 C 33.480469 36.792969 32.941406 37.191406 32.386719 37.566406 C 31.828125 37.9375 31.253906 38.28125 30.660156 38.597656 C 30.066406 38.917969 29.460938 39.203125 28.84375 39.460938 C 28.222656 39.71875 27.589844 39.941406 26.949219 40.136719 C 26.304688 40.332031 25.65625 40.496094 24.996094 40.628906 C 24.339844 40.757812 23.675781 40.855469 23.007812 40.921875 C 22.339844 40.988281 21.671875 41.023438 21 41.023438 C 20.328125 41.023438 19.660156 40.988281 18.992188 40.921875 C 18.324219 40.855469 17.660156 40.757812 17 40.628906 C 16.34375 40.496094 15.691406 40.332031 15.050781 40.136719 C 14.410156 39.941406 13.777344 39.71875 13.15625 39.460938 C 12.535156 39.203125 11.929688 38.917969 11.339844 38.597656 C 10.746094 38.28125 10.171875 37.9375 9.613281 37.566406 C 9.054688 37.191406 8.515625 36.792969 8 36.367188 C 7.480469 35.941406 6.984375 35.488281 6.507812 35.015625 C 6.035156 34.539062 5.582031 34.042969 5.15625 33.523438 C 4.730469 33.003906 4.332031 32.464844 3.960938 31.90625 C 3.585938 31.347656 3.242188 30.773438 2.925781 30.179688 C 2.609375 29.585938 2.324219 28.980469 2.066406 28.359375 C 1.808594 27.738281 1.582031 27.109375 1.386719 26.464844 C 1.195312 25.820312 1.03125 25.171875 0.898438 24.511719 C 0.769531 23.851562 0.671875 23.191406 0.605469 22.519531 C 0.539062 21.851562 0.507812 21.183594 0.507812 20.511719 C 0.507812 19.839844 0.539062 19.167969 0.605469 18.5 C 0.671875 17.832031 0.769531 17.167969 0.898438 16.507812 C 1.03125 15.851562 1.195312 15.199219 1.386719 14.558594 C 1.582031 13.914062 1.808594 13.28125 2.066406 12.660156 C 2.324219 12.039062 2.609375 11.433594 2.925781 10.84375 C 3.242188 10.25 3.585938 9.675781 3.960938 9.117188 C 4.332031 8.558594 4.730469 8.019531 5.15625 7.5 C 5.582031 6.980469 6.035156 6.484375 6.507812 6.007812 C 6.984375 5.53125 7.480469 5.082031 8 4.65625 C 8.515625 4.230469 9.054688 3.828125 9.613281 3.457031 C 10.171875 3.082031 10.746094 2.738281 11.339844 2.421875 C 11.929688 2.105469 12.535156 1.816406 13.15625 1.5625 C 13.777344 1.304688 14.410156 1.078125 15.050781 0.882812 C 15.691406 0.6875 16.34375 0.523438 17 0.394531 C 17.660156 0.261719 18.324219 0.164062 18.992188 0.0976562 C 19.660156 0.03125 20.328125 0 21 0 C 21.671875 0 22.339844 0.03125 23.007812 0.0976562 C 23.675781 0.164062 24.339844 0.261719 24.996094 0.394531 C 25.65625 0.523438 26.304688 0.6875 26.949219 0.882812 C 27.589844 1.078125 28.222656 1.304688 28.84375 1.5625 C 29.460938 1.816406 30.066406 2.105469 30.660156 2.421875 C 31.253906 2.738281 31.828125 3.082031 32.386719 3.457031 C 32.941406 3.828125 33.480469 4.230469 34 4.65625 C 34.519531 5.082031 35.015625 5.53125 35.492188 6.007812 C 35.964844 6.484375 36.414062 6.980469 36.839844 7.5 C 37.265625 8.019531 37.667969 8.558594 38.039062 9.117188 C 38.414062 9.675781 38.757812 10.25 39.074219 10.84375 C 39.390625 11.433594 39.675781 12.039062 39.933594 12.660156 C 40.191406 13.28125 40.414062 13.914062 40.609375 14.558594 C 40.804688 15.199219 40.96875 15.851562 41.097656 16.507812 C 41.230469 17.167969 41.328125 17.832031 41.394531 18.5 C 41.460938 19.167969 41.492188 19.839844 41.492188 20.511719 Z M 41.492188 20.511719 " fill-opacity="1" fill-rule="nonzero"/></g><path fill="#ffffff" d="M 23.527344 18.582031 L 33.550781 7.019531 L 31.1875 7.019531 L 22.464844 17.058594 L 15.664062 7.277344 L 7.914062 7.277344 L 18.179688 21.992188 L 7.753906 33.992188 L 10.171875 33.992188 L 19.25 23.519531 L 26.558594 34 L 34.25 34 Z M 20.351562 22.246094 L 19.285156 20.71875 L 11.042969 8.90625 L 14.8125 8.90625 L 21.363281 18.328125 L 22.421875 19.855469 L 31.125 32.367188 L 27.410156 32.367188 Z M 20.351562 22.246094 " fill-opacity="1" fill-rule="nonzero"/></svg>